<svg xmlns="http://www.w3.org/2000/svg" width="400" height="600" viewBox="0 0 400 600"><rect width="100%" height="100%" fill="#DDDDDD"/><path fill="#999999" d="M98.8 284.535h4.15v25.31h-2.41q-.56 0-.94-.18-.38-.19-.73-.63l-13.21-16.87q.11 1.16.11 2.14v15.54h-4.15v-25.31h2.47q.29 0 .51.03t.39.11q.16.07.32.22t.35.4l13.27 16.94q-.06-.62-.09-1.21-.04-.6-.04-1.1zm17.05 7.07q1.99 0 3.63.65t2.8 1.84 1.79 2.9q.63 1.72.63 3.84 0 2.13-.63 3.85-.63 1.71-1.79 2.92t-2.8 1.85q-1.64.65-3.63.65-2.01 0-3.66-.65-1.64-.64-2.81-1.85-1.16-1.21-1.8-2.92-.64-1.72-.64-3.85 0-2.12.64-3.84.64-1.71 1.8-2.9 1.17-1.19 2.81-1.84 1.65-.65 3.66-.65m0 15.18q2.24 0 3.32-1.51 1.07-1.5 1.07-4.41 0-2.9-1.07-4.43-1.08-1.52-3.32-1.52-2.28 0-3.37 1.53t-1.09 4.42 1.09 4.4q1.09 1.52 3.37 1.52m26.06-.62h4.76q1.31 0 2.2-.31.89-.32 1.43-.84.53-.53.77-1.23.23-.7.23-1.48 0-.83-.26-1.48-.26-.66-.82-1.12-.56-.47-1.44-.71-.89-.25-2.13-.25h-4.74zm4-17.99h-4v7.32h3.74q2.42 0 3.65-.88 1.23-.87 1.23-2.78 0-1.98-1.12-2.82t-3.5-.84m-8.71-3.64h8.71q2.49 0 4.26.48 1.76.47 2.89 1.34 1.13.88 1.66 2.12.52 1.24.52 2.8 0 .89-.26 1.71-.26.81-.81 1.52-.56.71-1.4 1.29-.85.57-2.03.98 5.22 1.17 5.22 5.63 0 1.61-.61 2.98-.62 1.36-1.79 2.35t-2.89 1.55q-1.71.56-3.92.56h-9.55zm30.31 7.07q1.99 0 3.63.65t2.8 1.84 1.79 2.9q.63 1.72.63 3.84 0 2.13-.63 3.85-.63 1.71-1.79 2.92t-2.8 1.85q-1.64.65-3.63.65-2.01 0-3.66-.65-1.64-.64-2.81-1.85-1.16-1.21-1.8-2.92-.64-1.72-.64-3.85 0-2.12.64-3.84.64-1.71 1.8-2.9 1.17-1.19 2.81-1.84 1.65-.65 3.66-.65m0 15.18q2.24 0 3.32-1.51 1.07-1.5 1.07-4.41 0-2.9-1.07-4.43-1.08-1.52-3.32-1.52-2.28 0-3.37 1.53t-1.09 4.42 1.09 4.4q1.09 1.52 3.37 1.52m20.11-15.18q1.99 0 3.63.65 1.63.65 2.8 1.84 1.16 1.19 1.79 2.9.63 1.72.63 3.84 0 2.13-.63 3.85-.63 1.71-1.79 2.92-1.17 1.21-2.8 1.85-1.64.65-3.63.65-2.02 0-3.66-.65-1.65-.64-2.81-1.85t-1.8-2.92q-.64-1.72-.64-3.85 0-2.12.64-3.84.64-1.71 1.8-2.9t2.81-1.84q1.64-.65 3.66-.65m0 15.18q2.24 0 3.31-1.51 1.08-1.5 1.08-4.41 0-2.9-1.08-4.43-1.07-1.52-3.31-1.52-2.28 0-3.37 1.53-1.1 1.53-1.1 4.42t1.1 4.4q1.09 1.52 3.37 1.52m12.16-22.95h4.32v14.9h.81q.43 0 .69-.12.25-.11.51-.46l4.47-5.51q.28-.37.62-.56.34-.2.88-.2h3.96l-5.59 6.67q-.59.79-1.29 1.21.37.26.66.61.28.35.55.75l5.98 8.72h-3.9q-.51 0-.88-.17-.36-.16-.61-.6l-4.58-6.81q-.25-.4-.51-.52-.26-.13-.79-.13h-.98v8.23h-4.32zm32.62.7v25.31h-4.73v-25.31zm9.29 25.31h-4.32v-17.96h2.64q.84 0 1.1.79l.28 1.33q.48-.52.99-.96.52-.44 1.11-.75.58-.32 1.26-.5.67-.19 1.47-.19 1.7 0 2.8.92 1.09.92 1.63 2.44.42-.89 1.05-1.53t1.38-1.04q.76-.4 1.61-.59.84-.2 1.7-.2 1.49 0 2.64.46 1.16.45 1.95 1.33.78.87 1.2 2.13.41 1.26.41 2.89v11.43h-4.33v-11.43q0-1.71-.75-2.58t-2.2-.87q-.67 0-1.24.23t-.99.66q-.43.43-.68 1.07-.24.65-.24 1.49v11.43h-4.34v-11.43q0-1.8-.73-2.62-.73-.83-2.13-.83-.94 0-1.75.47-.82.46-1.52 1.27zm34.48-4.64v-3.03q-1.88.09-3.15.33-1.28.23-2.05.6t-1.1.86q-.34.49-.34 1.07 0 1.13.68 1.62.67.49 1.76.49 1.33 0 2.3-.48t1.9-1.46m-9.14-9.43-.77-1.38q3.1-2.84 7.46-2.84 1.57 0 2.81.52 1.25.51 2.1 1.43.86.92 1.31 2.2.44 1.28.44 2.8v11.34h-1.96q-.61 0-.94-.18-.33-.19-.53-.75l-.38-1.29q-.68.61-1.33 1.07-.65.47-1.35.78-.7.32-1.49.48-.8.17-1.76.17-1.14 0-2.1-.31-.97-.3-1.67-.92-.7-.61-1.08-1.52-.39-.91-.39-2.12 0-.68.23-1.35.23-.68.75-1.29.51-.61 1.33-1.15.83-.55 2.03-.95 1.19-.4 2.79-.65 1.59-.26 3.64-.31v-1.05q0-1.8-.77-2.67t-2.23-.87q-1.05 0-1.74.25-.69.24-1.21.55-.53.31-.96.55-.43.25-.95.25-.46 0-.77-.24-.32-.24-.51-.55m23.98 4.65q.8 0 1.4-.21.59-.22.99-.61.39-.38.59-.93.2-.54.2-1.19 0-1.33-.79-2.1-.8-.78-2.39-.78-1.6 0-2.39.78-.8.77-.8 2.1 0 .63.2 1.18.2.54.6.93.39.4 1 .62.6.21 1.39.21m4.88 10.23q0-.53-.32-.86-.31-.34-.85-.52-.55-.18-1.27-.27-.73-.09-1.54-.13-.82-.05-1.68-.08-.87-.04-1.69-.14-.72.4-1.16.94-.45.55-.45 1.27 0 .47.24.88.23.41.75.71.51.3 1.34.46.82.17 2.01.17 1.21 0 2.08-.19.88-.18 1.45-.5.56-.33.83-.77.26-.45.26-.97m-.86-18.15h5.16v1.61q0 .77-.92.94l-1.61.3q.36.93.36 2.03 0 1.33-.53 2.41-.53 1.07-1.48 1.82-.94.76-2.23 1.17t-2.77.41q-.53 0-1.02-.05-.49-.06-.96-.14-.84.5-.84 1.13 0 .55.5.8t1.32.36q.82.1 1.87.13t2.15.11q1.11.09 2.16.31t1.87.69 1.32 1.29q.5.81.5 2.09 0 1.19-.59 2.31-.58 1.12-1.69 2-1.12.87-2.73 1.4-1.62.54-3.69.54-2.03 0-3.53-.4-1.51-.39-2.51-1.05-.99-.65-1.48-1.51t-.49-1.78q0-1.26.76-2.11t2.09-1.36q-.72-.37-1.14-.98t-.42-1.61q0-.4.15-.83t.44-.85.72-.8q.44-.37 1.04-.67-1.37-.74-2.15-1.96-.78-1.23-.78-2.87 0-1.33.54-2.41.53-1.07 1.49-1.83.95-.77 2.25-1.17 1.31-.4 2.85-.4 1.15 0 2.17.24 1.01.23 1.85.69m11.31 6.3h8.15q0-.84-.23-1.59-.24-.74-.71-1.3-.48-.56-1.2-.88-.73-.33-1.69-.33-1.87 0-2.95 1.07t-1.37 3.03m11.02 2.6h-11.11q.1 1.39.49 2.39.38 1.01 1.01 1.67.63.65 1.5.98.87.32 1.92.32t1.81-.25q.76-.24 1.33-.54t1-.54q.42-.25.83-.25.54 0 .8.41l1.24 1.57q-.71.84-1.61 1.41-.89.57-1.86.91t-1.98.48q-1 .14-1.95.14-1.87 0-3.48-.62t-2.8-1.84q-1.19-1.21-1.87-3.01-.69-1.79-.69-4.15 0-1.84.6-3.46.59-1.62 1.71-2.82 1.11-1.2 2.71-1.9t3.61-.7q1.7 0 3.13.55 1.44.54 2.47 1.58t1.62 2.56q.59 1.51.59 3.45 0 .98-.21 1.32t-.81.34"/></svg>